HIERARCHY
ROOT Hips
{
	OFFSET	0.00	0.00	0.00
	CHANNELS 6 Xposition Yposition Zposition Zrotation Xrotation Yrotation
	JOINT LeftUpLeg
	{
		OFFSET	 0.126116	-0.014019	-0.065224
		CHANNELS 3 Zrotation Xrotation Yrotation
		JOINT LeftLeg
		{
			OFFSET	 0.000000	 0.000000	 0.569914
			CHANNELS 3 Zrotation Xrotation Yrotation
			JOINT LeftFoot
			{
				OFFSET	 0.000000	 0.000000	 0.544423
				CHANNELS 3 Zrotation Xrotation Yrotation
				JOINT LeftToeBase
				{
					OFFSET	 0.000000	 0.000000	 0.207117
					CHANNELS 3 Zrotation Xrotation Yrotation
					End Site
					{
						OFFSET	 0.000000	 0.000000	 0.207117
					}
				}
			}
		}
	}
	JOINT RightUpLeg
	{
		OFFSET	-0.124023	-0.008373	-0.065224
		CHANNELS 3 Zrotation Xrotation Yrotation
		JOINT RightLeg
		{
			OFFSET	 0.000000	 0.000000	 0.570047
			CHANNELS 3 Zrotation Xrotation Yrotation
			JOINT RightFoot
			{
				OFFSET	 0.000000	 0.000000	 0.544354
				CHANNELS 3 Zrotation Xrotation Yrotation
				JOINT RightToeBase
				{
					OFFSET	 0.000000	 0.000000	 0.207540
					CHANNELS 3 Zrotation Xrotation Yrotation
					End Site
					{
						OFFSET	 0.000000	 0.000000	 0.207540
					}
				}
			}
		}
	}
	JOINT Spine
	{
		OFFSET	 0.000184	-0.007763	 0.117403
		CHANNELS 3 Zrotation Xrotation Yrotation
		JOINT Spine1
		{
			OFFSET	 0.000000	 0.000000	 0.137269
			CHANNELS 3 Zrotation Xrotation Yrotation
			JOINT Spine2
			{
				OFFSET	 0.000000	 0.000000	 0.156879
				CHANNELS 3 Zrotation Xrotation Yrotation
				JOINT LeftShoulder
				{
					OFFSET	 0.080501	-0.002496	 0.160144
					CHANNELS 3 Zrotation Xrotation Yrotation
					JOINT LeftArm
					{
						OFFSET	 0.000000	 0.000000	 0.164363
						CHANNELS 3 Zrotation Xrotation Yrotation
						JOINT LeftForeArm
						{
							OFFSET	 0.000000	 0.000000	 0.364576
							CHANNELS 3 Zrotation Xrotation Yrotation
							JOINT LeftHand
							{
								OFFSET	 0.000000	 0.000000	 0.360812
								CHANNELS 3 Zrotation Xrotation Yrotation
								JOINT LeftHandIndex1
								{
									OFFSET	 0.000000	 0.000000	 0.086006
									CHANNELS 3 Zrotation Xrotation Yrotation
									JOINT LeftHandIndex2
									{
										OFFSET	 0.000000	 0.000000	 0.047236
										CHANNELS 3 Zrotation Xrotation Yrotation
										JOINT LeftHandIndex3
										{
											OFFSET	-0.004284	-0.000551	 0.038166
											CHANNELS 3 Zrotation Xrotation Yrotation
											End Site
											{
												OFFSET	-0.004284	-0.000551	 0.038166
											}
										}
									}
								}
							}
						}
					}
				}
				JOINT Neck
				{
					OFFSET	 0.000000	 0.000000	 0.176489
					CHANNELS 3 Zrotation Xrotation Yrotation
					JOINT Head
					{
						OFFSET	 0.000000	-0.001747	 0.077940
						CHANNELS 3 Zrotation Xrotation Yrotation
						End Site
						{
							OFFSET	 0.000000	-0.001747	 0.077940
						}
					}
				}
				JOINT RightShoulder
				{
					OFFSET	-0.080363	 0.000306	 0.159706
					CHANNELS 3 Zrotation Xrotation Yrotation
					JOINT RightArm
					{
						OFFSET	 0.000000	 0.000000	 0.164196
						CHANNELS 3 Zrotation Xrotation Yrotation
						JOINT RightForeArm
						{
							OFFSET	 0.000000	 0.000000	 0.365611
							CHANNELS 3 Zrotation Xrotation Yrotation
							JOINT RightHand
							{
								OFFSET	 0.000000	 0.000000	 0.360648
								CHANNELS 3 Zrotation Xrotation Yrotation
								JOINT RightHandIndex1
								{
									OFFSET	 0.000000	 0.000000	 0.069977
									CHANNELS 3 Zrotation Xrotation Yrotation
									JOINT RightHandIndex2
									{
										OFFSET	 0.000000	 0.000000	 0.052305
										CHANNELS 3 Zrotation Xrotation Yrotation
										JOINT RightHandIndex3
										{
											OFFSET	 0.009002	-0.000782	 0.042196
											CHANNELS 3 Zrotation Xrotation Yrotation
											End Site
											{
												OFFSET	 0.009002	-0.000782	 0.042196
											}
										}
									}
								}
							}
						}
					}
				}
			}
		}
	}
}
MOTION
Frames:    4
Frame Time: 0.03333334
-0.000153	 0.047435	 1.272278	-0.014855	 3.549324	 0.719350	 11.280220	-8.804155	 177.491900	 2.193681	-15.763160	 0.709552	 0.669227	 71.817120	-0.792718	-2.385833	 28.452750	 0.000004	-4.010448	-8.005988	-178.188800	-0.730053	-13.803500	 1.055651	 5.175915	 70.686010	 1.161885	 2.384659	 28.388700	-0.000001	-0.563835	 7.959697	 0.098620	 0.381258	-8.699701	 0.052239	-0.727232	 12.588240	 0.480007	-90.956760	 68.342960	-177.368400	-6.481843	 0.131851	-23.242150	 24.789020	-0.114542	-0.851191	-6.073847	-10.558560	-4.596911	-2.027600	 6.559038	 9.033609	-5.188889	 0.308190	 3.541030	-5.234859	 0.342567	 0.430617	 4.705572	 21.757540	-7.914227	-5.619342	-15.934460	 1.772809	 88.689490	 66.449300	 176.761500	 9.523051	 6.898946	 11.746420	-26.251710	-7.594680	 21.835810	 2.856856	-9.760818	 5.424388	 1.803333	 3.979147	-15.098590	 4.898592	 3.004813	-9.310344	 5.224449	 0.395017	 2.014677
-0.000721	 0.052074	 1.270072	 0.068300	 4.536470	 0.808462	 11.331190	-10.893730	 177.591600	 2.218894	-17.339660	 0.789165	 1.743041	 72.363170	-1.988144	-2.385833	 28.452750	 0.000004	-4.356210	-10.035740	-178.473600	-0.697164	-15.335990	 1.178903	 4.590782	 71.206060	 1.825841	 2.384659	 28.388700	-0.000001	-1.201381	 8.526136	 0.105983	 0.372193	-10.869640	-0.031512	-0.843347	 15.112250	 0.601317	-90.827080	 67.453800	-177.123000	-5.694950	 0.418360	-25.152970	 23.760340	-0.098788	-1.088211	-4.669914	-11.980910	-5.199467	-2.027600	 6.559038	 9.033609	-5.188889	 0.308190	 3.541030	-5.234859	 0.342567	 0.430617	 4.764882	 24.477610	-8.696579	-5.317642	-18.004780	 1.711272	 88.438770	 64.731120	 176.361200	 8.818110	 7.006091	 13.270610	-25.707850	-7.503069	 22.479510	 1.043633	-10.411460	 5.035516	 1.803333	 3.979147	-15.098590	 4.898592	 3.004813	-9.310344	 5.224449	 0.395017	 2.014677
-0.001740	 0.063023	 1.266343	 0.268328	 6.795672	 1.022284	 11.319680	-15.107130	 177.846300	 2.217664	-19.747160	 0.890575	 4.368223	 72.976540	-4.833413	-2.385832	 28.452790	-0.000001	-5.119409	-13.998980	-179.114200	-1.184773	-17.425780	 1.175103	 3.346576	 71.767240	 3.848266	 2.384659	 28.388700	-0.000001	-2.311013	 9.155222	-0.000262	 0.373981	-14.577600	-0.023432	-1.305935	 18.720330	 0.739718	-90.917950	 65.438610	-177.671300	-3.858516	 1.132076	-27.451160	 20.189010	-0.045538	-1.543380	-4.191396	-14.001180	-6.964696	-2.027600	 6.559038	 9.033609	-5.188889	 0.308190	 3.541030	-5.234859	 0.342567	 0.430617	 4.196522	 26.619840	-8.826465	-5.015958	-19.880660	 1.333731	 88.453070	 61.738350	 176.821900	 5.975471	 7.353589	 14.733450	-23.724710	-6.807831	 23.542030	-1.686528	-11.145330	 5.301347	 1.803333	 3.979147	-15.098590	 4.898592	 3.004813	-9.310344	 5.224449	 0.395017	 2.014677
-0.002233	 0.078438	 1.260814	 0.682807	 9.767124	 1.077689	 11.010960	-20.811350	 178.438200	 2.150942	-23.211590	 1.012489	 8.197944	 73.512530	-8.962580	-2.385833	 28.452760	 0.000004	-6.036137	-19.378450	-179.805800	-1.454477	-20.370320	 1.286632	 1.305532	 72.464120	 6.480621	 2.384659	 28.388700	-0.000001	-3.647264	 9.178351	-0.121928	 0.491323	-17.996840	 0.100486	-1.846258	 21.291830	 1.076446	-91.869800	 64.831950	 179.753100	-2.094114	 3.928321	-27.130610	 17.967280	 0.015649	-2.052373	-3.852407	-15.010220	-8.559897	-2.027600	 6.559038	 9.033609	-5.188889	 0.308190	 3.541030	-5.234859	 0.342567	 0.430617	 3.502637	 26.598130	-8.796393	-4.781528	-20.515770	 1.053455	 89.346380	 60.701770	 178.994900	 2.115267	 9.910765	 12.874590	-21.715870	-6.529288	 26.266310	-3.938560	-11.895880	 5.551322	 1.803333	 3.979147	-15.098590	 4.898592	 3.004813	-9.310344	 5.224449	 0.395017	 2.014677
